<svg width="527" height="667" viewBox="0 0 527 667" fill="none" xmlns="http://www.w3.org/2000/svg">
<path d="M411.413 665.687C411.413 665.687 327.457 532.334 317.876 491.045C308.295 449.756 307.17 431.358 308.858 422.673C310.549 414.027 313.72 406.638 313.93 394.868C314.144 383.06 316.465 371.709 319.425 365.005C322.385 358.301 327.247 350.988 322.385 338.99C317.523 326.992 316.255 325.354 313.509 314.193C310.76 303.033 312.99 288.369 314.353 283.912C316.465 277.018 331.404 250.812 331.404 249.174C331.404 247.574 320.555 243.841 310.34 245.136C306.765 245.555 302.395 246.927 302.395 246.927" stroke="#221E1F" stroke-width="2.07" stroke-miterlimit="2" stroke-linecap="round"/>
<path d="M281.22 665.877C281.22 665.877 232.141 540.105 222.422 519.803C212.698 499.463 215.868 485.865 203.612 469.41C191.352 452.955 172.967 436.081 166.413 414.56C159.863 393.039 144.434 377.423 144.22 369.157C144.013 360.93 140.42 357.692 148.027 350.15C155.631 342.646 178.463 316.631 187.124 313.775C195.79 310.956 199.384 314.003 201.286 315.412C203.188 316.822 229.181 341.428 231.507 350.76C233.833 360.13 240.859 377.042 244.242 381.499C247.622 385.955 245.867 391.745 241.968 394.259C238.307 396.582 233.092 397.306 227.985 394.259C224.268 392.011 214.723 384.241 211.113 375.366C209.421 371.176 208.965 363.482 208.965 363.482C208.965 363.482 198.053 363.634 191.352 357.464C184.169 350.874 184.379 341.809 184.379 341.809" stroke="#221E1F" stroke-width="2.07" stroke-miterlimit="2" stroke-linecap="round"/>
<path d="M193.75 311.756C193.75 311.756 199.947 304.024 205.019 300.939C210.091 297.815 229.958 287.531 240.665 302.538C250.194 315.946 259.688 340.323 260.813 344.132C261.943 347.903 266.309 361.273 272.087 369.158C277.864 377.042 283.732 387.44 281.596 392.544C279.694 397.077 275.89 398.753 271.294 400.124C265.192 401.953 259.668 400.848 255.971 398.525C254.145 397.344 248.153 389.65 245.479 383.67" stroke="#221E1F" stroke-width="2.07" stroke-miterlimit="2"/>
<path d="M205.161 299.567C205.161 299.148 209.556 270.047 215.246 262.582C220.94 255.154 222.632 251.764 226.578 250.393C230.521 249.06 258.139 241.328 262.925 241.747C267.716 242.128 298.432 243.461 300.406 244.832C302.379 246.165 303.485 253.25 302.66 256.754C301.686 260.944 300.263 266.505 288.007 270.048C279.282 272.562 277.028 272.028 271.52 271.266C268.73 270.886 261.943 268.943 261.943 268.943C261.943 268.943 259.122 274.39 254.192 276.561C249.259 278.694 245.455 278.999 245.455 278.999C245.455 278.999 247.726 285.436 247.852 290.349C248.134 301.319 240.807 306.271 240.807 306.271" stroke="#221E1F" stroke-width="2.07" stroke-miterlimit="2"/>
<path d="M215.246 262.582C215.246 262.582 212.1 244.908 213.649 239.652C215.198 234.357 221.95 212.074 223.266 207.846C226.646 196.991 239.963 185.793 244.754 182.822C249.54 179.851 252.262 178.898 255.599 178.403C258.876 177.87 265.422 182.174 265.885 188.231C266.591 197.448 262.351 206.094 257.501 211.694C254.905 214.703 250.812 217.902 250.812 217.902C250.812 217.902 256.459 231.386 251.949 243.575" stroke="#221E1F" stroke-width="2.07" stroke-miterlimit="2"/>
<path d="M274.88 303.262C272.507 290.997 259.121 287.264 259.121 287.264C259.121 287.264 259.454 285.55 259.724 284.141C261.412 275.304 257.398 272.447 257.398 272.447" stroke="#221E1F" stroke-width="2.07" stroke-miterlimit="2"/>
<path d="M277.289 271.419C270.252 287.531 275.95 301.167 275.95 301.167L274.991 303.033C268.73 315.755 270.402 329.353 270.402 329.353C270.402 329.353 264.336 332.553 259.724 343.333" stroke="#221E1F" stroke-width="2.07" stroke-miterlimit="2"/>
<path d="M208.965 363.482C208.965 363.482 200.862 374.338 172.333 377.195" stroke="#221E1F" stroke-width="2.07" stroke-miterlimit="2" stroke-linecap="round"/>
<path d="M255.884 429.187C240.53 412.656 240.835 395.706 240.835 395.706" stroke="#221E1F" stroke-width="2.07" stroke-miterlimit="2" stroke-linecap="round"/>
<path d="M275.819 243.956C275.819 244.032 272.154 247.27 271.873 253.859C271.722 257.364 272.368 258.887 272.368 258.887C272.368 258.887 278.212 260.22 286.034 259.458C289.271 259.154 289.767 248.032 296.531 245.784C302.546 243.804 275.819 243.956 275.819 243.956Z" fill="#221E1F"/>
<path d="M330.167 252.069C326.573 252.831 320.935 253.44 317.733 257.173C313.509 262.125 311.608 268.829 311.184 271.419L310.76 273.971C310.76 273.971 317.512 276.637 317.729 276.18C317.947 275.723 330.167 252.069 330.167 252.069Z" fill="#221E1F"/>
<path d="M233.469 192.382L238.679 195.886C238.679 195.886 247.357 192.306 251.585 185.945C254.719 181.222 254.688 178.708 254.688 178.708L248.205 179.698L233.469 192.382Z" fill="#221E1F"/>
<path d="M268.171 373.576C268.171 373.576 262.557 374.338 260.021 376.013C257.485 377.728 255.179 381.042 255.179 381.042C255.179 381.042 260.1 390.564 262.628 392.621C266.325 395.63 268.841 396.315 274.032 394.03C275.653 393.306 276.933 391.669 276.944 389.117C276.964 385.917 274.987 382.679 274.357 381.651C272.086 377.994 268.171 373.576 268.171 373.576Z" fill="#221E1F"/>
<path d="M228.302 377.423C226.673 378.604 223.194 383.06 223.194 383.06C223.194 383.06 229.605 390.031 232.633 390.564C234.511 390.869 236.262 391.44 238.43 390.45C239.753 389.84 241.053 388.545 240.807 386.412C240.581 384.469 237.99 380.622 237.467 379.937C236.651 378.832 234.396 375.061 234.396 375.061C234.396 375.061 231.016 375.404 228.302 377.423Z" fill="#221E1F"/>
<path d="M249.616 31.4526C242.135 24.2536 242.135 12.5982 249.616 5.39924C257.097 -1.79975 269.23 -1.79975 276.711 5.39924C284.196 12.5982 284.196 24.2536 276.711 31.4526C269.23 38.6516 257.097 38.6516 249.616 31.4526Z" fill="#221E1F"/>
<path d="M493.621 239.957C501.102 232.758 513.235 232.758 520.716 239.957C528.197 247.156 528.197 258.811 520.716 266.01C513.235 273.209 501.102 273.209 493.621 266.01C486.136 258.811 486.136 247.156 493.621 239.957Z" fill="#221E1F"/>
<path d="M5.61077 239.957C13.0958 232.758 25.2246 232.758 32.7096 239.957C40.1906 247.156 40.1906 258.811 32.7096 266.01C25.2246 273.209 13.0958 273.209 5.61077 266.01C-1.87026 258.811 -1.87026 247.156 5.61077 239.957Z" fill="#221E1F"/>
<path d="M416.54 87.1399C416.54 76.9699 425.119 68.7045 435.702 68.7045C446.282 68.7045 454.86 76.9699 454.86 87.1399C454.86 97.3099 446.282 105.537 435.702 105.537C425.119 105.537 416.54 97.3099 416.54 87.1399Z" fill="#221E1F"/>
<path d="M71.4659 418.826C71.4659 408.656 80.0445 400.429 90.6281 400.429C101.208 400.429 109.786 408.656 109.786 418.826C109.786 428.996 101.208 437.262 90.6281 437.262C80.0445 437.262 71.4659 428.996 71.4659 418.826Z" fill="#221E1F"/>
<path d="M435.702 400.429C446.282 400.429 454.86 408.656 454.86 418.826C454.86 428.996 446.282 437.262 435.702 437.262C425.119 437.262 416.54 428.996 416.54 418.826C416.54 408.656 425.119 400.429 435.702 400.429Z" fill="#221E1F"/>
<path d="M90.6281 68.7045C101.208 68.7045 109.786 76.9699 109.786 87.1399C109.786 97.3099 101.208 105.537 90.6281 105.537C80.0445 105.537 71.4659 97.3099 71.4659 87.1399C71.4659 76.9699 80.0445 68.7045 90.6281 68.7045Z" fill="#221E1F"/>
<path d="M263.167 48.2879C265.529 54.3823 270.533 59.182 276.837 61.4674C270.533 63.7527 265.529 68.59 263.167 74.6463C260.79 68.59 255.797 63.7527 249.489 61.4674C255.797 59.182 260.797 54.3823 263.167 48.2879Z" fill="#221E1F"/>
<path d="M66.493 240.033C68.8546 246.089 73.8592 250.926 80.1634 253.212C73.8592 255.497 68.8546 260.296 66.493 266.391C64.1156 260.296 59.119 255.497 52.8148 253.212C59.119 250.926 64.1235 246.089 66.493 240.033Z" fill="#221E1F"/>
<path d="M459.841 239.804C462.203 245.86 467.207 250.698 473.511 252.983C467.207 255.269 462.203 260.106 459.841 266.162C457.464 260.068 452.471 255.269 446.167 252.983C452.471 250.698 457.476 245.86 459.841 239.804Z" fill="#221E1F"/>
<path d="M263.163 90.987V140.313" stroke="#221E1F" stroke-width="2.07" stroke-miterlimit="2" stroke-linecap="round"/>
<path d="M145.662 253.135H94.634" stroke="#221E1F" stroke-width="2.07" stroke-miterlimit="2" stroke-linecap="round"/>
<path d="M431.692 253.135H380.549" stroke="#221E1F" stroke-width="2.07" stroke-miterlimit="2" stroke-linecap="round"/>
<path d="M382.388 138.371L346.996 172.385" stroke="#221E1F" stroke-width="2.07" stroke-miterlimit="2" stroke-linecap="round"/>
<path d="M178.696 171.89L143.938 138.485" stroke="#221E1F" stroke-width="2.07" stroke-miterlimit="2" stroke-linecap="round"/>
<path d="M382.277 367.596L346.184 332.896" stroke="#221E1F" stroke-width="2.07" stroke-miterlimit="2" stroke-linecap="round"/>
<path d="M172.499 325.011C155.734 305.509 145.662 280.484 145.662 253.212C145.662 190.859 198.247 140.313 263.108 140.313C327.968 140.313 380.549 190.859 380.549 253.212C380.549 293.93 358.098 329.658 324.438 349.503" stroke="#221E1F" stroke-width="2.07" stroke-miterlimit="2"/>
</svg>
