<?xml version="1.0" encoding="UTF-8" standalone="no"?>
<!DOCTYPE svg PUBLIC "-//W3C//DTD SVG 1.1//EN" "http://www.w3.org/Graphics/SVG/1.1/DTD/svg11.dtd">
<svg width="100%" height="100%" viewBox="0 0 147 175" version="1.1" xmlns="http://www.w3.org/2000/svg" xmlns:xlink="http://www.w3.org/1999/xlink" xml:space="preserve" xmlns:serif="http://www.serif.com/" style="fill-rule:evenodd;clip-rule:evenodd;stroke-linecap:round;stroke-miterlimit:2;">
    <g transform="matrix(1,0,0,1,-4089.551694,-765.755552)">
        <path d="M4146.509,937.911C4146.509,937.911 4149.24,929.823 4147.95,919.345C4146.66,908.867 4145.38,908.499 4145.009,907.764C4144.64,907.028 4128.58,895.999 4127.2,893.655C4125.819,891.311 4120.17,884.004 4113.27,879.73C4106.38,875.456 4105.88,875.284 4104.73,874.698C4103.23,873.94 4103.22,872.021 4104.549,870.527C4105.759,869.181 4108.38,866.012 4115.89,869.252C4123.41,872.492 4129.89,885.865 4144.29,880.178" style="fill:none;stroke:rgb(34,30,31);stroke-width:2.07px;"/>
        <path d="M4134.37,880.764C4134.37,880.764 4143.88,876.077 4143.74,866.908C4143.609,857.74 4139.81,844.229 4139.33,841.816C4138.85,839.403 4135.89,822.859 4136.299,820.584C4136.71,818.309 4138.16,816.379 4140.5,816.655C4142.85,816.931 4144.779,819.137 4145.88,823.548C4146.98,827.96 4147.19,832.303 4148.839,835.267C4150.5,838.231 4152.91,848.089 4153.259,849.744C4153.6,851.398 4153.81,852.915 4154.839,853.19C4155.88,853.466 4157.19,853.673 4157.25,852.087C4157.319,850.502 4157.13,842.092 4156.85,839.886C4156.569,837.68 4156.799,832.648 4157.27,830.373C4157.74,828.098 4158.009,817.62 4158.15,816.172C4158.29,814.725 4158.9,811.471 4160.63,810.244C4162.29,809.072 4165.87,809.072 4166.7,812.312C4167.529,815.552 4166.56,821.067 4166.7,822.997C4166.839,824.927 4167.25,830.58 4167.6,833.82C4167.94,837.06 4167.73,840.299 4167.6,842.574C4167.46,844.849 4167.63,851.398 4167.779,852.156C4167.94,852.915 4168.08,853.397 4168.77,853.397C4169.46,853.397 4170.9,847.813 4170.97,846.641C4171.04,845.47 4171.319,842.436 4172.009,839.886C4172.7,837.335 4174.42,830.718 4174.7,828.029C4174.97,825.341 4175.87,818.447 4177.38,817.413C4178.9,816.379 4180.63,815.667 4182.549,816.655C4185.1,817.965 4184.97,819.895 4184.97,821.411C4184.97,822.928 4182.97,830.442 4182.9,831.614C4182.83,832.786 4182.21,839.059 4182.069,841.196C4181.93,843.333 4179.73,851.053 4179.52,853.88C4179.31,856.706 4178.56,858.154 4179.04,858.567C4179.52,858.981 4180.42,860.842 4181.66,860.635C4182.9,860.428 4187.45,856.017 4189.52,853.673C4191.58,851.329 4198.13,843.746 4198.55,843.402C4198.96,843.057 4202.34,839.679 4203.65,839.334C4204.96,838.99 4206.82,839.417 4207.51,840.483C4208.75,842.414 4207.78,844.504 4207.3,845.297C4206.82,846.09 4201.24,852.639 4200.96,853.328C4200.68,854.018 4194.82,861.393 4194.069,862.634C4193.31,863.875 4188.759,868.907 4188.69,869.941C4188.62,870.975 4186.14,889.45 4185.31,891.311C4184.48,893.172 4180.42,903.237 4180.35,905.167C4180.279,907.097 4182.279,936.224 4183.45,938.256" style="fill:none;stroke:rgb(34,30,31);stroke-width:2.07px;"/>
        <path d="M4171.14,876.186C4172.47,877.919 4173.259,880.078 4173.259,882.418C4173.259,888.13 4168.549,892.76 4162.74,892.76C4156.93,892.76 4152.22,888.13 4152.22,882.418C4152.22,880.079 4153.009,877.92 4154.339,876.188C4154.33,876.304 4154.33,876.42 4154.33,876.537C4154.33,881.102 4158.1,884.802 4162.74,884.802C4167.38,884.802 4171.15,881.102 4171.15,876.537C4171.15,876.422 4171.14,876.304 4171.14,876.186Z" style="fill:rgb(34,30,31);fill-rule:nonzero;"/>
        <path d="M4163.04,782.841L4156.92,786.931L4158.91,779.84L4153.13,775.277L4160.49,774.984L4163.04,768.074L4165.6,774.984L4172.96,775.277L4167.17,779.84L4169.17,786.931L4163.04,782.841Z" style="fill:none;stroke:rgb(34,30,31);stroke-width:2.07px;stroke-linecap:butt;"/>
        <path d="M4101.779,828.847L4095.66,832.937L4097.65,825.846L4091.87,821.282L4099.23,820.989L4101.779,814.079L4104.339,820.989L4111.7,821.282L4105.91,825.846L4107.91,832.937L4101.779,828.847Z" style="fill:none;stroke:rgb(34,30,31);stroke-width:2.07px;stroke-linecap:butt;"/>
        <path d="M4224.3,828.728L4218.17,832.818L4220.17,825.727L4214.39,821.164L4221.75,820.871L4224.3,813.961L4226.85,820.871L4234.22,821.164L4228.43,825.727L4230.43,832.818L4224.3,828.728Z" style="fill:none;stroke:rgb(34,30,31);stroke-width:2.07px;stroke-linecap:butt;"/>
        <path d="M4200.95,796.891L4194.83,800.981L4196.82,793.89L4191.04,789.327L4198.4,789.034L4200.95,782.124L4203.51,789.034L4210.87,789.327L4205.08,793.89L4207.08,800.981L4200.95,796.891Z" style="fill:rgb(34,30,31);fill-rule:nonzero;"/>
        <path d="M4124.97,796.891L4118.85,800.981L4120.839,793.89L4115.06,789.327L4122.42,789.034L4124.97,782.124L4127.529,789.034L4134.89,789.327L4129.1,793.89L4131.1,800.981L4124.97,796.891Z" style="fill:rgb(34,30,31);fill-rule:nonzero;"/>
        <path d="M4159.88,877.352C4158.31,875.775 4158.31,873.217 4159.88,871.64C4161.46,870.062 4164.02,870.062 4165.6,871.64C4167.17,873.217 4167.17,875.775 4165.6,877.352C4164.02,878.93 4161.46,878.93 4159.88,877.352Z" style="fill:rgb(34,30,31);fill-rule:nonzero;"/>
    </g>
</svg>
