<?xml version="1.0" encoding="UTF-8" standalone="no"?>
<!DOCTYPE svg PUBLIC "-//W3C//DTD SVG 1.1//EN" "http://www.w3.org/Graphics/SVG/1.1/DTD/svg11.dtd">
<svg width="100%" height="100%" viewBox="0 0 179 179" version="1.1" xmlns="http://www.w3.org/2000/svg" xmlns:xlink="http://www.w3.org/1999/xlink" xml:space="preserve" xmlns:serif="http://www.serif.com/" style="fill-rule:evenodd;clip-rule:evenodd;stroke-miterlimit:2;">
    <g transform="matrix(1,0,0,1,-2405.741636,-467.267637)">
        <path d="M2552.37,590.143C2545.36,595.542 2536.62,598.74 2527.15,598.74C2504.04,598.74 2485.3,579.675 2485.3,556.164C2485.3,532.648 2504.04,513.587 2527.15,513.587C2536.62,513.587 2545.35,516.785 2552.36,522.176C2551.89,522.151 2551.42,522.143 2550.95,522.143C2532.48,522.143 2517.51,537.372 2517.51,556.164C2517.51,574.951 2532.48,590.18 2550.95,590.18C2551.42,590.18 2551.89,590.168 2552.37,590.143Z" style="fill:none;stroke:rgb(34,30,31);stroke-width:2.07px;"/>
        <path d="M2437.29,590.143C2444.3,595.542 2453.03,598.74 2462.5,598.74C2485.61,598.74 2504.35,579.675 2504.35,556.164C2504.35,532.648 2485.61,513.587 2462.5,513.587C2453.04,513.587 2444.3,516.785 2437.29,522.176C2437.76,522.151 2438.23,522.143 2438.7,522.143C2457.18,522.143 2472.15,537.372 2472.15,556.164C2472.15,574.951 2457.18,590.18 2438.7,590.18C2438.24,590.18 2437.76,590.168 2437.29,590.143Z" style="fill:none;stroke:rgb(34,30,31);stroke-width:2.07px;"/>
        <path d="M2503.68,510.648C2499.6,512.172 2496.36,515.405 2494.82,519.477C2493.29,515.405 2490.05,512.172 2485.98,510.648C2490.05,509.112 2493.29,505.885 2494.82,501.813C2496.36,505.885 2499.6,509.118 2503.68,510.648Z" style="fill:rgb(34,30,31);fill-rule:nonzero;"/>
        <path d="M2499.35,495.461C2497.27,496.241 2495.61,497.894 2494.82,499.977C2494.04,497.894 2492.38,496.241 2490.3,495.461C2492.39,494.676 2494.04,493.026 2494.82,490.943C2495.61,493.026 2497.27,494.679 2499.35,495.461Z" style="fill:rgb(34,30,31);fill-rule:nonzero;"/>
        <path d="M2494.83,469.586L2494.83,488.575" style="fill:none;fill-rule:nonzero;"/>
        <path d="M2494.83,469.586L2494.83,488.575" style="fill:none;stroke:rgb(34,30,31);stroke-width:2.07px;stroke-linecap:round;"/>
        <path d="M2485.98,602.063C2490.05,600.538 2493.3,597.306 2494.83,593.233C2496.37,597.306 2499.61,600.538 2503.68,602.063C2499.6,603.598 2496.37,606.825 2494.83,610.898C2493.3,606.825 2490.05,603.593 2485.98,602.063Z" style="fill:rgb(34,30,31);fill-rule:nonzero;"/>
        <path d="M2490.3,617.249C2492.39,616.47 2494.05,614.817 2494.83,612.734C2495.62,614.817 2497.27,616.47 2499.35,617.249C2497.27,618.035 2495.62,619.685 2494.83,621.768C2494.05,619.685 2492.39,618.032 2490.3,617.249Z" style="fill:rgb(34,30,31);fill-rule:nonzero;"/>
        <path d="M2494.83,643.125L2494.83,624.136" style="fill:none;fill-rule:nonzero;"/>
        <path d="M2494.83,643.125L2494.83,624.136" style="fill:none;stroke:rgb(34,30,31);stroke-width:2.07px;stroke-linecap:round;"/>
        <path d="M2540.53,565.015C2539.01,560.937 2535.78,557.694 2531.71,556.158C2535.78,554.622 2539.01,551.384 2540.53,547.312C2542.07,551.39 2545.3,554.622 2549.37,556.158C2545.3,557.694 2542.06,560.937 2540.53,565.015Z" style="fill:rgb(34,30,31);fill-rule:nonzero;"/>
        <path d="M2555.72,560.691C2554.94,558.605 2553.29,556.946 2551.21,556.161C2553.29,555.375 2554.94,553.719 2555.72,551.636C2556.51,553.722 2558.16,555.375 2560.24,556.161C2558.16,556.946 2556.5,558.605 2555.72,560.691Z" style="fill:rgb(34,30,31);fill-rule:nonzero;"/>
        <path d="M2581.6,556.163L2562.61,556.163" style="fill:none;fill-rule:nonzero;"/>
        <path d="M2581.6,556.163L2562.61,556.163" style="fill:none;stroke:rgb(34,30,31);stroke-width:2.07px;stroke-linecap:round;"/>
        <path d="M2449.12,547.312C2450.64,551.39 2453.88,554.634 2457.95,556.169C2453.88,557.705 2450.64,560.943 2449.12,565.015C2447.58,560.937 2444.36,557.705 2440.28,556.169C2444.36,554.634 2447.59,551.39 2449.12,547.312Z" style="fill:rgb(34,30,31);fill-rule:nonzero;"/>
        <path d="M2433.93,551.636C2434.71,553.722 2436.37,555.381 2438.45,556.166C2436.37,556.952 2434.71,558.608 2433.93,560.691C2433.15,558.605 2431.5,556.952 2429.41,556.166C2431.5,555.381 2433.15,553.722 2433.93,551.636Z" style="fill:rgb(34,30,31);fill-rule:nonzero;"/>
        <path d="M2408.06,556.164L2427.05,556.164" style="fill:none;fill-rule:nonzero;"/>
        <path d="M2408.06,556.164L2427.05,556.164" style="fill:none;stroke:rgb(34,30,31);stroke-width:2.07px;stroke-linecap:round;"/>
    </g>
</svg>
