<svg width="113" height="113" viewBox="0 0 113 113" fill="none" xmlns="http://www.w3.org/2000/svg">
<path fill-rule="evenodd" clip-rule="evenodd" d="M110.611 65.2612C108.933 76.5912 103.668 87.4169 94.8506 95.9253C73.3293 116.694 38.753 115.781 17.6254 93.8887C-3.50216 71.9933 -3.18535 37.4084 18.336 16.6387C27.1449 8.13371 38.154 3.26272 49.5225 1.98462C49.0687 2.38269 48.6233 2.79616 48.1782 3.22077C30.9799 19.8198 30.7234 47.4535 47.6135 64.9505C64.495 82.4432 92.1197 83.17 109.318 66.5701C109.755 66.1532 110.183 65.7132 110.611 65.2612Z" stroke="white" stroke-width="2.07" stroke-miterlimit="2"/>
<path d="M97.1189 15.8024C93.5235 23.7021 93.5063 32.8337 97.0847 40.7403C89.1747 37.1637 80.0494 37.1713 72.1565 40.7642C75.7434 32.8491 75.752 23.7415 72.1736 15.834C80.0836 19.4115 89.2175 19.3953 97.1189 15.8024Z" fill="white"/>
<path d="M102.29 28.2793C94.157 31.3192 87.6853 37.7645 84.6292 45.8851C81.5645 37.7645 75.1099 31.3192 66.9859 28.2793C75.1185 25.2172 81.5645 18.7831 84.6292 10.6625C87.6853 18.7831 94.157 25.2283 102.29 28.2793Z" fill="white"/>
</svg>
