<svg width="134" height="136" viewBox="0 0 134 136" fill="none" xmlns="http://www.w3.org/2000/svg">
<path fill-rule="evenodd" clip-rule="evenodd" d="M118.365 75.999C116.961 86.7834 112.154 97.1428 103.912 105.377C83.8228 125.448 50.9503 125.172 30.4993 104.74C10.0484 84.3078 9.77176 51.4765 29.8718 31.3953C38.1032 23.1715 48.4722 18.3584 59.256 16.9559C58.8306 17.3384 58.416 17.7422 58.0012 18.1566C41.9425 34.2003 42.1658 60.4441 58.501 76.7641C74.8469 93.0841 101.105 93.3072 117.163 77.2634C117.567 76.8597 117.972 76.4346 118.365 75.999Z" stroke="white" stroke-width="2.07" stroke-miterlimit="2"/>
<path d="M93.7026 39.5766L86.2263 44.5597L88.6616 35.9109L81.6 30.3434L90.5866 29.9822L93.7026 21.5565L96.8293 29.9822L105.816 30.3434L98.7542 35.9109L101.19 44.5597L93.7026 39.5766Z" fill="white"/>
<path fill-rule="evenodd" clip-rule="evenodd" d="M130.882 67.7222C130.882 103.752 102.126 132.981 66.6687 132.981C31.2119 132.981 2.46568 103.752 2.46568 67.7222C2.46568 31.6822 31.2119 2.46338 66.6687 2.46338C102.126 2.46338 130.882 31.6822 130.882 67.7222Z" stroke="white" stroke-width="2.07" stroke-miterlimit="2"/>
<path d="M110.08 71.5046L106.752 73.7253L107.836 69.8791L104.689 67.3927L108.698 67.2333L110.08 63.4722L111.474 67.2333L115.483 67.3927L112.335 69.8791L113.42 73.7253L110.08 71.5046Z" fill="white"/>
<path d="M66.6687 42.5197L63.34 44.751L64.4248 40.8941L61.2767 38.4079L65.2755 38.2485L66.6687 34.4978L68.0618 38.2485L72.0712 38.4079L68.9233 40.8941L70.0081 44.751L66.6687 42.5197Z" fill="white"/>
<path d="M79.42 77.8372L76.0806 80.0578L77.1654 76.201L74.0173 73.7254L78.0267 73.566L79.42 69.8047L80.8024 73.566L84.8118 73.7254L81.6639 76.201L82.7487 80.0578L79.42 77.8372Z" fill="white"/>
</svg>
