<svg width="119" height="118" viewBox="0 0 119 118" fill="none" xmlns="http://www.w3.org/2000/svg">
<path d="M100.08 18.125L67.8049 50.3276" stroke="white" stroke-width="2.07" stroke-miterlimit="2" stroke-linecap="round"/>
<path d="M33.8595 50.3276L31.4489 47.9219" stroke="white" stroke-width="2.07" stroke-miterlimit="2" stroke-linecap="round"/>
<path d="M69.9941 86.3976L67.8049 84.2051" stroke="white" stroke-width="2.07" stroke-miterlimit="2" stroke-linecap="round"/>
<path d="M50.8323 43.1106V1.76489" stroke="white" stroke-width="2.07" stroke-miterlimit="2" stroke-linecap="round"/>
<path d="M116.473 67.2739H74.6322" stroke="white" stroke-width="2.07" stroke-miterlimit="2" stroke-linecap="round"/>
<path d="M96.1819 48.6908L72.9082 58.2298" stroke="white" stroke-width="2.07" stroke-miterlimit="2" stroke-linecap="round"/>
<path d="M35.24 29.3693L41.6554 44.9681" stroke="white" stroke-width="2.07" stroke-miterlimit="2" stroke-linecap="round"/>
<path d="M87.3483 82.8195L72.8547 76.4475" stroke="white" stroke-width="2.07" stroke-miterlimit="2" stroke-linecap="round"/>
<path d="M69.7348 22.1141L60.1462 45.029" stroke="white" stroke-width="2.07" stroke-miterlimit="2" stroke-linecap="round"/>
<path d="M69.7348 22.1141L60.1462 45.029" stroke="white" stroke-width="2.07" stroke-miterlimit="2" stroke-linecap="round"/>
<path d="M96.1971 48.6755L96.1819 48.6908L72.9082 58.2221" stroke="white" stroke-width="2.07" stroke-miterlimit="2" stroke-linecap="round"/>
<path d="M31.8074 53.5708C35.9876 47.4576 42.9523 43.4608 50.8323 43.4608C63.6171 43.4608 73.9761 53.9742 73.9761 66.9542C73.9761 74.7042 70.2766 81.5863 64.5707 85.8647" stroke="white" stroke-width="2.07" stroke-miterlimit="2"/>
<path fill-rule="evenodd" clip-rule="evenodd" d="M99.79 73.9581C98.4551 84.167 93.8935 93.9876 86.0898 101.776C67.0346 120.793 35.8657 120.519 16.4824 101.174C-2.90082 81.8298 -3.16783 50.7311 15.8874 31.7141C23.6911 23.9261 33.5238 19.3735 43.7456 18.0413C43.3413 18.4067 42.9523 18.7873 42.5556 19.1756C27.3297 34.3709 27.5432 59.2195 43.0361 74.6813C58.5213 90.1355 83.4199 90.3486 98.6458 75.1533C99.0349 74.7726 99.4163 74.3692 99.79 73.9581Z" stroke="white" stroke-width="2.07" stroke-miterlimit="2"/>
</svg>
